<svg width="350" height="350" viewBox="0 0 350 350" fill="none" xmlns="http://www.w3.org/2000/svg">
<path d="M114.625 190.5H113.625V191.5H114.625V190.5ZM114.625 143.955V142.955H113.625V143.955H114.625ZM124.466 143.955H125.466V142.955H124.466V143.955ZM124.466 182.386H123.466V183.386H124.466V182.386ZM144.42 182.386H145.42V181.386H144.42V182.386ZM144.42 190.5V191.5H145.42V190.5H144.42ZM115.625 190.5V143.955H113.625V190.5H115.625ZM114.625 144.955H124.466V142.955H114.625V144.955ZM123.466 143.955V182.386H125.466V143.955H123.466ZM124.466 183.386H144.42V181.386H124.466V183.386ZM143.42 182.386V190.5H145.42V182.386H143.42ZM144.42 189.5H114.625V191.5H144.42V189.5ZM160.147 190.5V191.5H160.874L161.098 190.809L160.147 190.5ZM149.602 190.5L148.657 190.174L148.199 191.5H149.602V190.5ZM165.67 143.955V142.955H164.957L164.725 143.628L165.67 143.955ZM178.352 143.955L179.297 143.629L179.065 142.955H178.352V143.955ZM194.397 190.5V191.5H195.8L195.343 190.174L194.397 190.5ZM183.852 190.5L182.901 190.809L183.125 191.5H183.852V190.5ZM172.193 154.591L173.144 154.282L172.919 153.591H172.193V154.591ZM171.829 154.591V153.591H171.103L170.878 154.282L171.829 154.591ZM159.488 172.205V171.205H158.488V172.205H159.488ZM184.397 172.205H185.397V171.205H184.397V172.205ZM184.397 179.886V180.886H185.397V179.886H184.397ZM159.488 179.886H158.488V180.886H159.488V179.886ZM160.147 189.5H149.602V191.5H160.147V189.5ZM150.547 190.826L166.615 144.281L164.725 143.628L148.657 190.174L150.547 190.826ZM165.67 144.955H178.352V142.955H165.67V144.955ZM177.406 144.28L193.452 190.826L195.343 190.174L179.297 143.629L177.406 144.28ZM194.397 189.5H183.852V191.5H194.397V189.5ZM184.803 190.191L173.144 154.282L171.242 154.9L182.901 190.809L184.803 190.191ZM172.193 153.591H171.829V155.591H172.193V153.591ZM170.878 154.282L159.196 190.191L161.098 190.809L172.78 154.9L170.878 154.282ZM159.488 173.205H184.397V171.205H159.488V173.205ZM183.397 172.205V179.886H185.397V172.205H183.397ZM184.397 178.886H159.488V180.886H184.397V178.886ZM160.488 179.886V172.205H158.488V179.886H160.488ZM202.596 143.955L203.549 143.651L203.327 142.955H202.596V143.955ZM213.846 179.318L212.893 179.621L213.115 180.318H213.846V179.318ZM214.278 179.318V180.318H215.009L215.231 179.622L214.278 179.318ZM225.551 143.955V142.955H224.82L224.598 143.651L225.551 143.955ZM236.46 143.955L237.405 144.28L237.862 142.955H236.46V143.955ZM220.414 190.5V191.5H221.127L221.36 190.826L220.414 190.5ZM207.733 190.5L206.787 190.826L207.02 191.5H207.733V190.5ZM191.664 143.955V142.955H190.261L190.719 144.281L191.664 143.955ZM201.643 144.258L212.893 179.621L214.799 179.015L203.549 143.651L201.643 144.258ZM213.846 180.318H214.278V178.318H213.846V180.318ZM215.231 179.622L226.504 144.258L224.598 143.651L213.325 179.014L215.231 179.622ZM225.551 144.955H236.46V142.955H225.551V144.955ZM235.514 143.629L219.469 190.174L221.36 190.826L237.405 144.28L235.514 143.629ZM220.414 189.5H207.733V191.5H220.414V189.5ZM208.678 190.174L192.61 143.628L190.719 144.281L206.787 190.826L208.678 190.174ZM191.664 144.955H202.596V142.955H191.664V144.955ZM251.903 143.955H252.903V142.955H251.903V143.955ZM251.903 190.5V191.5H252.903V190.5H251.903ZM242.062 190.5H241.062V191.5H242.062V190.5ZM242.062 143.955V142.955H241.062V143.955H242.062ZM250.903 143.955V190.5H252.903V143.955H250.903ZM251.903 189.5H242.062V191.5H251.903V189.5ZM243.062 190.5V143.955H241.062V190.5H243.062ZM242.062 144.955H251.903V142.955H242.062V144.955ZM299.886 180.182L299.006 179.706L299.005 179.709L299.886 180.182ZM292.068 188.341L292.561 189.211L292.562 189.21L292.068 188.341ZM269.841 188.318L270.337 187.45L269.841 188.318ZM262.045 180.159L261.164 180.632L261.164 180.632L262.045 180.159ZM262.045 154.273L262.926 154.745L262.926 154.745L262.045 154.273ZM269.841 146.136L270.334 147.006L270.337 147.005L269.841 146.136ZM292.068 146.136L291.572 147.005L291.576 147.007L292.068 146.136ZM299.886 154.273L299.005 154.745L299.006 154.748L299.886 154.273ZM291.318 158.909L290.399 159.304L290.401 159.309L291.318 158.909ZM287.204 153.773L286.654 154.608L286.654 154.608L287.204 153.773ZM274.75 153.773L275.299 154.608L275.299 154.608L274.75 153.773ZM270.613 158.909L269.697 158.509L269.694 158.514L270.613 158.909ZM270.613 175.545L269.694 175.94L269.697 175.945L270.613 175.545ZM274.75 180.682L275.299 179.846L275.299 179.846L274.75 180.682ZM287.204 180.682L286.654 179.846L286.654 179.846L287.204 180.682ZM291.318 175.545L290.401 175.146L290.399 175.151L291.318 175.545ZM301.772 167.227C301.772 172.178 300.834 176.324 299.006 179.706L300.766 180.657C302.786 176.918 303.772 172.428 303.772 167.227H301.772ZM299.005 179.709C297.179 183.115 294.702 185.692 291.573 187.472L292.562 189.21C296.039 187.232 298.775 184.37 300.767 180.654L299.005 179.709ZM291.575 187.471C288.45 189.242 284.925 190.136 280.977 190.136V192.136C285.24 192.136 289.11 191.167 292.561 189.211L291.575 187.471ZM280.977 190.136C276.998 190.136 273.46 189.235 270.337 187.45L269.344 189.186C272.797 191.159 276.683 192.136 280.977 192.136V190.136ZM270.337 187.45C267.223 185.671 264.753 183.093 262.926 179.687L261.164 180.632C263.155 184.346 265.882 187.208 269.344 189.186L270.337 187.45ZM262.926 179.687C261.112 176.303 260.181 172.164 260.181 167.227H258.181C258.181 172.412 259.159 176.894 261.164 180.632L262.926 179.687ZM260.181 167.227C260.181 162.275 261.113 158.128 262.926 154.745L261.164 153.8C259.159 157.539 258.181 162.028 258.181 167.227H260.181ZM262.926 154.745C264.753 151.339 267.222 148.77 270.334 147.006L269.347 145.266C265.884 147.23 263.156 150.085 261.164 153.8L262.926 154.745ZM270.337 147.005C273.46 145.22 276.998 144.318 280.977 144.318V142.318C276.683 142.318 272.797 143.295 269.344 145.268L270.337 147.005ZM280.977 144.318C284.924 144.318 288.447 145.219 291.572 147.005L292.564 145.268C289.112 143.296 285.242 142.318 280.977 142.318V144.318ZM291.576 147.007C294.703 148.772 297.179 151.34 299.005 154.745L300.767 153.8C298.775 150.084 296.038 147.228 292.559 145.265L291.576 147.007ZM299.006 154.748C300.834 158.13 301.772 162.276 301.772 167.227H303.772C303.772 162.027 302.786 157.536 300.766 153.797L299.006 154.748ZM293.795 167.227C293.795 163.845 293.289 160.928 292.234 158.509L290.401 159.309C291.316 161.406 291.795 164.033 291.795 167.227H293.795ZM292.237 158.514C291.202 156.106 289.715 154.228 287.754 152.937L286.654 154.608C288.239 155.651 289.494 157.197 290.399 159.304L292.237 158.514ZM287.754 152.937C285.799 151.651 283.527 151.023 280.977 151.023V153.023C283.185 153.023 285.064 153.562 286.654 154.608L287.754 152.937ZM280.977 151.023C278.427 151.023 276.155 151.651 274.2 152.937L275.299 154.608C276.89 153.562 278.769 153.023 280.977 153.023V151.023ZM274.2 152.937C272.241 154.227 270.746 156.103 269.697 158.509L271.53 159.309C272.45 157.2 273.713 155.652 275.299 154.608L274.2 152.937ZM269.694 158.514C268.656 160.931 268.159 163.847 268.159 167.227H270.159C270.159 164.032 270.631 161.402 271.532 159.304L269.694 158.514ZM268.159 167.227C268.159 170.607 268.656 173.523 269.694 175.94L271.532 175.151C270.631 173.052 270.159 170.423 270.159 167.227H268.159ZM269.697 175.945C270.746 178.351 272.241 180.228 274.2 181.517L275.299 179.846C273.713 178.803 272.45 177.255 271.53 175.146L269.697 175.945ZM274.2 181.517C276.155 182.804 278.427 183.432 280.977 183.432V181.432C278.769 181.432 276.89 180.893 275.299 179.846L274.2 181.517ZM280.977 183.432C283.527 183.432 285.799 182.804 287.754 181.517L286.654 179.846C285.064 180.893 283.185 181.432 280.977 181.432V183.432ZM287.754 181.517C289.715 180.227 291.202 178.348 292.237 175.94L290.399 175.151C289.494 177.258 288.239 178.804 286.654 179.846L287.754 181.517ZM292.234 175.945C293.289 173.527 293.795 170.609 293.795 167.227H291.795C291.795 170.421 291.316 173.049 290.401 175.146L292.234 175.945Z" fill="url(#paint0_linear_2_4)"/>
<path d="M86.5791 242L87.0791 81L302.079 81.5V97.5H107.079V119.5H302.079V136.5H107.079V241C99.0791 286.2 41.5791 271 44.0791 241H64.0791C66.8791 259.8 86.0791 254 86.5791 242Z" stroke="url(#paint1_linear_2_4)"/>
<path d="M100.579 130L100.079 241.5V246.5C96.5791 257.5 69.0791 279 50.0791 246.5H59.0791C62.5791 256 79.2791 268.9 92.0791 246.5L93.0791 87L295.579 87.5V91H100.579V125.5H296.079V130H100.579Z" stroke="url(#paint2_linear_2_4)"/>
<path d="M102.579 132V240.127V243.5C99.0791 267 59.0791 277.5 47.5791 244.5H60.5791C61.0791 253.5 80.5791 268 90.5791 244.5L91.0791 85L298.079 85.5V93H102.579V123.5H298.079V132H102.579Z" stroke="url(#paint3_linear_2_4)"/>
<path d="M104.579 134C104.579 134 106.579 209.5 104.579 241.5C102.579 273.5 52.0791 277.5 45.5791 242.5H62.5791C62.5791 256.5 85.5791 263 88.5791 241.5L89.0792 83L300.079 83.5V95H104.579L104.579 121.5H300.079V134H104.579Z" stroke="url(#paint4_linear_2_4)"/>
<path d="M172.579 214.5V198C161.579 198 146.079 211 147.579 232C147.579 246.5 153.079 257 164.579 263.5C170.579 266.5 184.579 267 190.579 258C198.579 250 201.579 216.5 210.079 215C214.412 213.5 223.779 214.1 226.579 228.5C229.379 242.9 219.079 252 212.579 252V267.5C215.579 268.5 229.079 267.2 237.079 252C240.579 244.5 242.399 224.282 237.579 214C230.079 198 220.079 197 212.579 197C208.079 196.667 197.479 199.6 191.079 214C189.079 216.5 184.679 238.7 183.079 241.5C182.054 243.621 181.318 244.295 179.579 246C175.112 249.322 163.872 250.862 161.079 236C158.383 221.653 167.746 215.667 172.579 214.5Z" stroke="url(#paint5_linear_2_4)"/>
<path d="M170.579 213.525V200C160.613 201.798 148.973 212.553 149.579 232C149.579 246.5 154.079 255.5 165.579 262C171.579 265 184.079 265 190.079 256C197.301 248.076 199.874 214.569 209.079 213C215.575 211.448 225.656 214.423 228.079 228C230.403 241.022 223.305 250.889 214.579 253.5V266L214.607 265.998C216.902 265.857 226.691 265.257 235.579 251.5C239.079 244 241.12 223.912 235.579 214C227.133 198.89 219.816 199.218 213.079 198.5C208.579 198.167 198.979 200.1 192.579 214.5C190.579 217 187.201 237.992 185.079 242C182.957 246.008 180.847 247.772 177.579 249C174.312 250.228 160.971 251.804 159.079 235.5C157.397 220.999 165.746 214.691 170.579 213.525Z" stroke="url(#paint6_linear_2_4)"/>
<path d="M168.579 212V203C165.579 202.5 153.911 207.508 151.079 228.5C150.814 241.355 153.292 251.719 165.079 260C171.079 263 182.579 264 188.579 255C195.256 245.923 199.085 211.743 209.079 211C215.575 209.448 227.656 213.423 230.079 227C232.403 240.022 225.305 251.889 216.579 254.5V263.5C218.82 263.362 224.654 264.814 233.579 251C237.079 243.5 239.594 224.131 233.579 214.5C223.991 199.147 219.064 201.102 213.079 200.5C208.579 200.167 200.979 200.6 194.579 215C192.579 217.5 189.201 238.492 187.079 242.5C184.957 246.508 180.347 250.272 177.079 251.5C173.812 252.728 158.971 252.304 157.079 236C155.397 221.499 163.746 213.167 168.579 212Z" stroke="url(#paint7_linear_2_4)"/>
<path d="M174 196V216C170.868 216.44 165.893 220.12 163.5 226C161.56 230.767 163.082 238.335 165.5 242C167.717 245.694 172.167 246.333 174.5 246C176.5 245.833 180.8 244.3 182 239.5C183.5 233.5 186.5 220 188 216C189.5 212 194.5 202.5 203 197.5C209.8 193.5 221.5 195.833 226.5 197.5C229.667 199.333 236.9 205.6 240.5 216C244.1 226.4 242 243.333 240.5 250.5C233.5 263 225.5 268.5 215.5 269.5C213.809 269.669 211 269 211 268.5C211 266.919 210.25 251 212 250.5C214.8 249.7 215.833 249.167 216 249C217.5 248.5 231.172 237.713 223 222.5C216.531 210.459 206.719 219.092 206 222.5C202 229 202.5 245 191 261C179.5 270 167.5 268.5 159 262C150.075 255.175 141 236 148 216C153.6 200 167.667 196 174 196Z" stroke="url(#paint8_linear_2_4)"/>
<defs>
<linearGradient id="paint0_linear_2_4" x1="208.579" y1="128.5" x2="208.579" y2="205.5" gradientUnits="userSpaceOnUse">
<stop stop-color="#8F0404"/>
<stop offset="1" stop-color="#480000"/>
</linearGradient>
<linearGradient id="paint1_linear_2_4" x1="173.29" y1="81" x2="173.29" y2="269.482" gradientUnits="userSpaceOnUse">
<stop stop-color="#8F0404"/>
<stop offset="1" stop-color="#480000"/>
</linearGradient>
<linearGradient id="paint2_linear_2_4" x1="172.869" y1="80.5" x2="172.869" y2="268.982" gradientUnits="userSpaceOnUse">
<stop stop-color="#8F0404"/>
<stop offset="1" stop-color="#480000"/>
</linearGradient>
<linearGradient id="paint3_linear_2_4" x1="172.869" y1="80.5" x2="172.869" y2="268.982" gradientUnits="userSpaceOnUse">
<stop stop-color="#8F0404"/>
<stop offset="1" stop-color="#480000"/>
</linearGradient>
<linearGradient id="paint4_linear_2_4" x1="172.869" y1="80.5" x2="172.869" y2="268.982" gradientUnits="userSpaceOnUse">
<stop stop-color="#8F0404"/>
<stop offset="1" stop-color="#480000"/>
</linearGradient>
<linearGradient id="paint5_linear_2_4" x1="117.5" y1="232" x2="275.5" y2="232" gradientUnits="userSpaceOnUse">
<stop stop-color="#8F0404"/>
<stop offset="1" stop-color="#480000"/>
</linearGradient>
<linearGradient id="paint6_linear_2_4" x1="116.5" y1="232" x2="270.5" y2="232" gradientUnits="userSpaceOnUse">
<stop stop-color="#8F0404"/>
<stop offset="1" stop-color="#480000"/>
</linearGradient>
<linearGradient id="paint7_linear_2_4" x1="117.5" y1="232" x2="266.5" y2="232" gradientUnits="userSpaceOnUse">
<stop stop-color="#8F0404"/>
<stop offset="1" stop-color="#480000"/>
</linearGradient>
<linearGradient id="paint8_linear_2_4" x1="193.999" y1="195.291" x2="193.999" y2="269.527" gradientUnits="userSpaceOnUse">
<stop stop-color="#8F0404"/>
<stop offset="1" stop-color="#480000"/>
</linearGradient>
</defs>
</svg>
